HIERARCHY
ROOT Pelvis
{
	OFFSET 0.000000 0.941512 0.000000
	CHANNELS 6 Xposition Yposition Zposition Zrotation Yrotation Xrotation 
	JOINT Pelvis_L_Hip
	{
		OFFSET 0.000000 0.000000 0.000000
		CHANNELS 3 Zrotation Yrotation Xrotation
		JOINT L_Hip
		{
			OFFSET 0.062321 -0.080322 -0.016990
			CHANNELS 3 Zrotation Yrotation Xrotation
			JOINT L_Knee
			{
				OFFSET 0.093051 -0.381305 -0.029784
				CHANNELS 3 Zrotation Yrotation Xrotation
				JOINT L_Ankle
				{
					OFFSET -0.010371 -0.431000 -0.033614
					CHANNELS 3 Zrotation Yrotation Xrotation
					End Site #name: L_Foot
					{
						OFFSET 0.069299 -0.038670 0.119418
					}
				}
			}
		}
	}
	JOINT Pelvis_R_Hip
	{
		OFFSET 0.000000 0.000000 0.000000
		CHANNELS 3 Zrotation Yrotation Xrotation
		JOINT R_Hip
		{
			OFFSET -0.055334 -0.094904 -0.002373
			CHANNELS 3 Zrotation Yrotation Xrotation
			JOINT R_Knee
			{
				OFFSET -0.064207 -0.384370 -0.019592
				CHANNELS 3 Zrotation Yrotation Xrotation
				JOINT R_Ankle
				{
					OFFSET 0.025418 -0.419734 -0.065953
					CHANNELS 3 Zrotation Yrotation Xrotation
					End Site #name: R_Foot
					{
						OFFSET -0.057233 -0.039888 0.132134
					}
				}
			}
		}
	}
	JOINT Pelvis_Spine1
	{
		OFFSET 0.000000 0.000000 0.000000
		CHANNELS 3 Zrotation Yrotation Xrotation
		JOINT Spine1
		{
			OFFSET -0.005562 0.124093 -0.043360
			CHANNELS 3 Zrotation Yrotation Xrotation
			JOINT Spine2
			{
				OFFSET 0.012244 0.139499 0.029894
				CHANNELS 3 Zrotation Yrotation Xrotation
				JOINT Spine3
				{
					OFFSET -0.002556 0.056561 0.009225
					CHANNELS 3 Zrotation Yrotation Xrotation
					JOINT Spine3_Neck
					{
						OFFSET 0.000000 0.000000 0.000000
						CHANNELS 3 Zrotation Yrotation Xrotation
						JOINT Neck
						{
							OFFSET -0.005205 0.217920 -0.024551
							CHANNELS 3 Zrotation Yrotation Xrotation
							End Site #name: Head
							{
								OFFSET 0.002365 0.091850 0.046637
							}
						}
					}
					JOINT Spine3_L_Collar
					{
						OFFSET 0.000000 0.000000 0.000000
						CHANNELS 3 Zrotation Yrotation Xrotation
						JOINT L_Collar
						{
							OFFSET 0.072225 0.116603 -0.009480
							CHANNELS 3 Zrotation Yrotation Xrotation
							JOINT L_Shoulder
							{
								OFFSET 0.115937 -0.058643 -0.021018
								CHANNELS 3 Zrotation Yrotation Xrotation
								JOINT L_Elbow
								{
									OFFSET 0.021994 -0.254722 -0.024492
									CHANNELS 3 Zrotation Yrotation Xrotation
									End Site #name: L_Wrist
									{
										OFFSET 0.048810 -0.240214 0.103329
									}
								}
							}
						}
					}
					JOINT Spine3_R_Collar
					{
						OFFSET 0.000000 0.000000 0.000000
						CHANNELS 3 Zrotation Yrotation Xrotation
						JOINT R_Collar
						{
							OFFSET -0.073372 0.120704 -0.024611
							CHANNELS 3 Zrotation Yrotation Xrotation
							JOINT R_Shoulder
							{
								OFFSET -0.108089 -0.054969 -0.020504
								CHANNELS 3 Zrotation Yrotation Xrotation
								JOINT R_Elbow
								{
									OFFSET -0.033684 -0.260739 0.009889
									CHANNELS 3 Zrotation Yrotation Xrotation
									End Site #name: R_Wrist
									{
										OFFSET -0.067980 -0.232763 0.118463
									}
								}
							}
						}
					}
				}
			}
		}
	}
}
MOTION
Frames: 12
Frame Time: 0.041667
2.378537 0.927221 3.370014 -1.835946 33.841524 -1.736581 0.000000 0.000000 0.000000 4.414308 -4.910998 -18.926571 -4.875089 0.139906 3.171486 26.731246 52.197806 31.698354 0.000000 0.000000 0.000000 -5.155291 0.029780 -0.578261 -23.103263 7.265407 24.808840 28.692163 53.451531 17.491078 0.000000 0.000000 0.000000 0.237941 1.284503 -16.763330 -4.959616 1.328651 6.263558 9.475718 25.834896 10.831199 0.000000 0.000000 0.000000 -31.716256 9.577516 6.138187 0.000000 0.000000 0.000000 23.132189 9.003580 22.764112 -31.552382 -0.694338 -12.443917 1.084719 1.519736 5.606440 0.000000 0.000000 0.000000 -43.384203 23.560372 -34.941753 37.230830 -5.920496 17.836295 -1.559302 -0.175849 -2.225791 
2.435787 0.930952 3.367451 0.255956 34.799201 -2.094671 0.000000 0.000000 0.000000 0.421703 -4.402180 -16.484601 -7.622659 0.221188 4.434531 27.653918 52.403425 28.901521 0.000000 0.000000 0.000000 -2.815842 0.857226 -6.693986 -33.853046 12.137039 36.226586 44.767983 48.931786 38.939994 0.000000 0.000000 0.000000 -2.343288 1.279481 -14.236061 -4.365711 1.109621 4.640270 9.030545 25.420335 11.121743 0.000000 0.000000 0.000000 -32.679974 9.787187 6.255433 0.000000 0.000000 0.000000 23.820857 6.292322 21.093855 -30.350659 -2.133061 -16.636589 2.053455 2.415420 8.725597 0.000000 0.000000 0.000000 -43.774531 23.087913 -34.689204 39.404097 -7.269320 20.190124 0.076907 -0.989998 3.578194 
2.487975 0.935098 3.362116 1.878960 35.724566 -2.060379 0.000000 0.000000 0.000000 -4.741817 -3.821542 -13.872251 -6.940125 0.179651 4.448696 27.435304 51.756050 25.212768 0.000000 0.000000 0.000000 1.895763 1.922451 -12.977313 -46.785692 17.657682 41.133821 55.417774 41.714256 54.331880 0.000000 0.000000 0.000000 -3.524543 1.269803 -12.661712 -4.444465 1.093672 4.131631 8.247636 25.063681 11.208517 0.000000 0.000000 0.000000 -33.508016 9.940401 6.422338 0.000000 0.000000 0.000000 23.032158 4.560987 19.079100 -27.437477 -3.120596 -19.281799 2.905023 2.308763 6.333119 0.000000 0.000000 0.000000 -42.558130 23.001714 -34.014929 38.960296 -8.633437 22.571624 1.469140 -1.541397 7.666985 
2.537222 0.943115 3.354269 2.382292 37.197455 -2.913078 0.000000 0.000000 0.000000 -9.626536 -2.895833 -10.519049 -4.488717 0.082695 3.776356 25.222624 49.540351 21.494771 0.000000 0.000000 0.000000 7.473073 2.797991 -16.216884 -58.093009 20.306809 39.085148 60.545165 49.471482 55.238553 0.000000 0.000000 0.000000 -3.402956 1.199659 -11.002336 -4.218292 1.036552 3.931294 7.643160 24.799081 11.292672 0.000000 0.000000 0.000000 -34.442439 10.009029 7.275551 0.000000 0.000000 0.000000 22.923846 4.007041 18.798399 -25.843109 -4.102478 -22.648487 3.789115 1.890432 1.673800 0.000000 0.000000 0.000000 -41.607990 21.428139 -31.994269 38.688919 -9.820593 25.019630 1.734864 -1.702995 8.606875 
2.583333 0.951625 3.344799 2.174801 39.187285 -3.941968 0.000000 0.000000 0.000000 -13.711499 -1.792641 -7.007102 -1.745337 -0.001155 2.187771 22.635594 46.658856 18.155088 0.000000 0.000000 0.000000 13.147699 3.436762 -18.011797 -64.817958 18.686892 33.318771 61.510959 52.376139 54.666330 0.000000 0.000000 0.000000 -3.122215 1.122846 -9.782612 -3.420242 0.863295 3.677960 7.722769 24.736215 11.765749 0.000000 0.000000 0.000000 -34.781628 9.762380 8.221338 0.000000 0.000000 0.000000 23.410984 3.412163 19.175187 -25.688107 -4.940887 -25.790951 3.993167 1.024040 -4.178432 0.000000 0.000000 0.000000 -41.766502 19.404492 -30.447607 39.082762 -11.444246 28.569421 0.821776 -1.533560 6.677573 
2.626631 0.956772 3.334271 1.465459 41.115209 -4.721599 0.000000 0.000000 0.000000 -16.731045 -0.833743 -4.103439 0.371873 -0.035616 0.448085 20.524816 43.862472 15.353103 0.000000 0.000000 0.000000 18.416076 3.679180 -18.504672 -66.280337 13.844152 25.255721 62.090560 54.860256 53.795169 0.000000 0.000000 0.000000 -2.848336 1.082572 -9.523725 -2.645036 0.719569 4.001704 8.397375 25.050065 12.164865 0.000000 0.000000 0.000000 -34.916054 9.285000 8.626539 0.000000 0.000000 0.000000 23.827228 3.146443 19.949674 -25.429565 -5.669822 -28.717052 2.982652 -0.525113 -10.090904 0.000000 0.000000 0.000000 -42.171592 17.957144 -29.935948 38.819070 -13.040458 32.401461 0.066608 -1.301964 4.675229 
2.668525 0.957415 3.322576 0.685198 42.662687 -5.279136 0.000000 0.000000 0.000000 -19.460605 -0.103992 -1.801529 2.340656 -0.056513 -0.974806 19.226559 41.713916 13.279758 0.000000 0.000000 0.000000 22.093368 3.454275 -17.759812 -60.297847 8.275726 16.650447 62.840521 56.633928 53.179507 0.000000 0.000000 0.000000 -2.360680 1.057681 -9.847350 -2.411032 0.700012 4.858250 9.343175 25.741018 12.642718 0.000000 0.000000 0.000000 -35.469272 8.736952 8.011995 0.000000 0.000000 0.000000 24.059895 3.376120 21.121052 -24.926983 -6.467635 -32.049185 1.838112 -2.137548 -14.935546 0.000000 0.000000 0.000000 -42.793315 17.442329 -30.782144 38.206542 -14.112770 35.396284 -0.280366 -1.386293 4.411619 
2.709970 0.954421 3.309088 -0.248017 43.679467 -5.545409 0.000000 0.000000 0.000000 -21.876493 0.385795 -0.123487 3.901666 -0.065658 -2.242611 18.385956 40.102057 11.762351 0.000000 0.000000 0.000000 23.914099 3.091711 -16.768969 -47.031986 4.908384 9.256173 63.540071 56.288371 53.284876 0.000000 0.000000 0.000000 -1.385252 1.038878 -10.797175 -2.675606 0.785545 5.875972 10.466988 26.724220 13.260078 0.000000 0.000000 0.000000 -36.944008 8.246493 6.897298 0.000000 0.000000 0.000000 24.185703 4.471248 23.019823 -24.485281 -7.373514 -35.905084 0.734075 -3.495050 -17.962833 0.000000 0.000000 0.000000 -43.680291 17.749671 -32.844094 37.322777 -14.746214 37.726573 -0.392745 -1.663089 5.232118 
2.751586 0.948984 3.293413 -1.799884 44.124931 -5.941345 0.000000 0.000000 0.000000 -24.006807 0.844981 1.426459 5.631302 -0.062782 -4.104923 17.675965 38.875333 10.772545 0.000000 0.000000 0.000000 24.806176 2.827946 -16.071502 -29.583435 3.716350 4.688132 61.838859 54.466178 51.890432 0.000000 0.000000 0.000000 0.358745 0.987014 -11.709621 -3.085538 0.890156 6.463694 11.573360 27.761662 13.864704 0.000000 0.000000 0.000000 -39.209561 7.783067 5.356405 0.000000 0.000000 0.000000 24.181677 6.375575 25.431873 -24.673224 -8.009834 -38.484173 -0.979788 -5.287597 -20.605016 0.000000 0.000000 0.000000 -44.753638 18.559561 -35.565112 35.944164 -15.095991 39.846302 -0.518563 -1.762494 5.385512 
2.794405 0.941969 3.276419 -2.919673 44.360956 -6.290289 0.000000 0.000000 0.000000 -26.037390 1.389406 3.173928 6.356961 -0.042390 -5.768399 16.891632 37.613199 9.818951 0.000000 0.000000 0.000000 25.671832 2.534217 -15.280112 -15.499096 2.651426 3.331283 62.816274 56.319577 51.531773 0.000000 0.000000 0.000000 1.717330 0.940792 -12.385844 -3.617223 1.024018 7.117403 12.555182 28.643213 14.429045 0.000000 0.000000 0.000000 -41.073250 7.194304 3.425354 0.000000 0.000000 0.000000 23.990251 8.474861 27.684580 -25.397596 -8.111165 -38.685192 -2.027506 -6.990465 -24.076551 0.000000 0.000000 0.000000 -45.543105 19.510536 -38.181999 34.048789 -14.910071 41.069855 -0.941282 -1.776443 4.725332 
2.838112 0.935462 3.257146 -3.704961 44.579119 -6.470133 0.000000 0.000000 0.000000 -27.056295 1.468514 3.629344 4.455171 -0.031007 -4.990739 16.861086 37.033623 8.949857 0.000000 0.000000 0.000000 28.087571 1.892860 -13.936514 -12.358032 2.187234 2.471920 88.390896 56.570776 73.783745 0.000000 0.000000 0.000000 2.799268 0.899193 -12.906486 -4.288243 1.192651 7.987028 13.219031 29.337095 14.824461 0.000000 0.000000 0.000000 -42.426284 6.471170 1.303157 0.000000 0.000000 0.000000 23.466655 10.655617 29.594832 -25.607877 -8.202805 -38.856312 -2.982021 -7.707052 -24.142784 0.000000 0.000000 0.000000 -45.997784 20.446250 -40.531423 32.171147 -14.159737 40.876257 -1.231507 -1.868503 4.567464 
2.885318 0.930930 3.233523 -3.271987 44.769367 -6.021261 0.000000 0.000000 0.000000 -28.471510 1.224423 3.446995 0.910345 -0.028326 -2.874293 17.212237 37.407983 8.976630 0.000000 0.000000 0.000000 30.393656 1.015184 -12.300549 -19.720902 2.947332 2.976463 104.422111 47.230140 88.751740 0.000000 0.000000 0.000000 3.510388 0.865497 -13.294724 -5.071299 1.388432 9.114988 13.773151 30.111929 15.304668 0.000000 0.000000 0.000000 -43.888570 5.676100 -0.318571 0.000000 0.000000 0.000000 22.688521 12.712867 31.180027 -26.644972 -8.186733 -37.824266 -3.742962 -7.534760 -21.760308 0.000000 0.000000 0.000000 -46.673903 21.544076 -43.410092 30.324232 -13.342065 40.507790 -1.141307 -1.746149 4.248065 
